<?xml version="1.0" encoding="UTF-8"?>
<svg width="512px" height="512px" viewBox="0 0 512 512" version="1.1" xmlns="http://www.w3.org/2000/svg" xmlns:xlink="http://www.w3.org/1999/xlink">
    <title>favicon备份</title>
    <g id="favicon备份" stroke="none" stroke-width="1" fill="none" fill-rule="evenodd">
        <rect id="base" fill="#BA2E12" x="0" y="0" width="512" height="512" rx="160"></rect>
        <path d="M509.407917,180.583429 C514.392427,188.498274 517.403901,197.350403 518.442341,207.139816 C519.48078,216.929229 520,229.947066 520,246.193326 L509.407917,251.817031 C506.915663,248.901036 501.515777,246.089183 493.208262,243.381473 C484.900746,240.673763 476.59323,238.903337 468.285714,238.070196 L392.271945,239.944764 C408.886976,244.943613 418.44062,248.901036 420.932874,251.817031 C423.425129,255.982739 424.671256,260.148446 424.671256,264.314154 C424.671256,265.563867 424.255881,268.688147 423.425129,273.686997 C423.009753,274.520138 422.802065,275.978136 422.802065,278.06099 C442.740103,275.978136 456.655192,275.35328 464.547332,276.186421 C468.285714,277.019563 472.231784,278.789988 476.385542,281.497699 C480.5393,284.205409 483.446931,287.017261 485.108434,289.933257 C490.092943,298.264672 493.208262,307.949942 494.454389,318.989068 C495.700516,330.028193 496.32358,343.254315 496.32358,358.667434 L485.108434,364.915995 C482.616179,362 477.008606,359.500575 468.285714,357.417722 C459.562823,355.334868 450.632243,353.87687 441.493976,353.043728 L419.063683,353.043728 L419.686747,434.275029 C420.517499,469.683544 420.725186,491.136939 420.309811,498.635213 C419.063683,509.882624 414.183018,520.088608 405.667814,529.253165 C397.15261,538.417722 386.041308,543 372.333907,543 C360.288009,543 349.799771,541.125432 340.869191,537.376295 C331.938612,533.627158 324.981067,528.628308 319.996558,522.379747 C312.935169,513.631761 305.873781,502.592635 298.812392,489.262371 C291.751004,475.932106 286.974182,465.309551 284.481928,457.394707 L290.089501,453.020713 C294.658635,456.35328 300.889271,459.47756 308.781411,462.393556 C316.673551,465.309551 322.6965,467.392405 326.850258,468.642117 L327.473322,468.642117 C328.719449,468.642117 329.861733,468.017261 330.900172,466.767549 C331.938612,465.517837 332.665519,464.059839 333.080895,462.393556 C333.496271,461.143843 333.703959,454.270426 333.703959,441.773303 C333.703959,417.195627 333.080895,389.0771 331.834768,357.417722 C279.497418,360.333717 240.659782,364.70771 215.321859,370.539701 C211.168101,371.372842 208.26047,371.789413 206.598967,371.789413 C204.522088,371.789413 202.237522,371.164557 199.745267,369.914845 C196.837636,367.41542 192.268503,359.500575 186.037866,346.170311 C179.807229,332.840046 176.69191,323.883774 176.69191,319.301496 L183.545611,309.303797 C187.699369,311.386651 192.47619,312.428078 197.876076,312.428078 C201.199082,312.428078 205.560528,311.907365 210.960413,310.865938 C216.360298,309.824511 220.721744,309.095512 224.04475,308.678941 C239.82903,305.346375 274.720597,299.514384 328.719449,291.182969 L326.227194,261.81473 C324.981067,252.233602 322.488812,246.193326 318.75043,243.693901 C258.936317,246.609896 217.814114,250.359033 195.383821,254.941312 C192.47619,256.191024 189.776248,256.81588 187.283993,256.81588 C184.791738,256.81588 182.507172,255.982739 180.430293,254.316456 C177.522662,252.233602 173.057372,244.214614 167.034423,230.259494 C161.011474,216.304373 158,207.035673 158,202.453395 L164.853701,192.455696 C166.930579,194.121979 170.876649,194.955121 176.69191,194.955121 C182.922547,194.955121 191.853127,193.705409 203.483649,191.205984 C210.545037,189.539701 239.413655,185.998849 290.089501,180.583429 C290.920252,173.085155 291.335628,166.003452 291.335628,159.33832 L290.712565,140.592635 L242.736661,146.216341 C238.582903,147.049482 235.88296,147.466053 234.636833,147.466053 C232.559954,147.466053 230.275387,146.841197 227.783133,145.591484 C225.290878,144.758343 221.552496,137.572497 216.567986,124.033947 C211.583477,110.495397 208.883534,101.434983 208.468158,96.8527043 L214.075731,91.2289988 C218.229489,94.1449942 223.629375,95.6029919 230.275387,95.6029919 C232.352266,95.6029919 236.713712,95.1864212 243.359725,94.3532796 C246.682731,93.9367089 261.013196,91.4372842 286.351119,86.8550058 C283.028112,54.7790564 280.120482,34.3670886 277.628227,25.6191024 C274.305221,15.6214039 270.982215,9.58112773 267.659208,7.49827388 L274.512909,0 C291.12794,0.416570771 310.339071,2.18699655 332.146299,5.31127733 C353.953528,8.43555811 366.10327,11.872267 368.595525,15.6214039 C371.503155,18.9539701 372.956971,22.9113924 372.956971,27.4936709 C372.956971,30.4096663 372.333907,34.1588032 371.08778,38.7410817 C369.841652,44.9896433 369.218589,55.6121979 369.218589,70.6087457 C380.849111,68.1093211 391.233505,66.2347526 400.371773,64.9850403 C402.448652,64.5684695 405.56397,64.3601841 409.717728,64.3601841 C430.486517,64.3601841 444.609294,75.3993096 452.086059,97.4775604 C452.91681,99.976985 453.332186,102.059839 453.332186,103.726122 C453.332186,106.642117 452.709122,109.558113 451.462995,112.474108 C450.216867,115.390104 448.763052,117.681243 447.101549,119.347526 C444.193919,122.263521 438.794033,126.220944 430.901893,131.219793 C423.009753,136.218642 417.40218,139.134638 414.079174,139.967779 L409.717728,136.843498 C410.54848,135.593786 410.652324,134.552359 410.02926,133.719217 C409.406196,132.886076 408.886976,132.26122 408.471601,131.844649 C408.056225,131.428078 405.771658,131.219793 401.6179,131.219793 C393.310384,131.219793 382.095238,131.844649 367.972461,133.094361 L367.972461,157.463751 C367.972461,164.128884 365.687894,169.752589 361.118761,174.334868 C421.34825,169.752589 460.80895,167.46145 479.500861,167.46145 C484.900746,167.46145 488.43144,167.669735 490.092943,168.086306 C493.831325,168.919448 497.569707,170.481588 501.30809,172.772727 C505.046472,175.063867 507.746414,177.667434 509.407917,180.583429 Z M50.5630252,118.01875 C49.7282913,116.36875 47.4327731,114.409375 43.6764706,112.140625 C39.9201681,109.871875 35.9551821,107.70625 31.7815126,105.64375 C22.5994398,101.51875 17.1736695,98.425 15.5042017,96.3625 C13.8347339,94.7125 13,92.65 13,90.175 C13,87.2875 14.4607843,83.9875 17.3823529,80.275 C24.0602241,74.5 37.8333333,69.34375 58.7016807,64.80625 C79.570028,60.26875 99.1862745,58 117.55042,58 C137.584034,58 150.105042,61.09375 155.113445,67.28125 C159.704482,71.81875 162,78.625 162,87.7 C162,98.425 159.078431,110.078125 153.235294,122.659375 C147.392157,135.240625 140.922969,143.8 133.827731,148.3375 C127.567227,153.2875 120.471989,155.7625 112.542017,155.7625 C109.620448,155.7625 107.533613,155.55625 106.281513,155.14375 C100.855742,153.49375 91.8823529,152.66875 79.3613445,152.66875 C64.3361345,152.66875 52.6498599,154.1125 44.302521,157 L37.4159664,150.8125 C49.9369748,133.075 54.3193277,122.14375 50.5630252,118.01875 Z M173.238532,355.537864 L177,363.017476 C174.910296,371.328155 167.805301,386.702913 155.685015,409.141748 C143.56473,431.580583 129.877166,452.461165 114.622324,471.783495 C99.3674822,491.105825 85.470948,502.636893 72.9327217,506.376699 C71.6788991,506.792233 69.7981651,507 67.2905199,507 C62.6931702,507 58.304791,504.714563 54.1253823,500.143689 C51.1997961,497.234951 46.4979613,485.807767 40.0198777,465.862136 C33.5417941,445.916505 30.3027523,433.034951 30.3027523,427.217476 C30.3027523,422.231068 31.2431193,418.075728 33.1238532,414.751456 C35.0045872,411.427184 37.8256881,407.895146 41.587156,404.15534 C43.2589195,402.493204 44.5127421,400.934951 45.3486239,399.480583 C46.1845056,398.026214 46.8114169,397.091262 47.2293578,396.675728 C50.1549439,383.794175 51.617737,364.887379 51.617737,339.95534 C51.617737,314.192233 50.5728848,293 48.4831804,276.378641 C47.6472987,269.314563 44.3037717,266.821359 38.4525994,268.899029 L20.8990826,275.75534 C17.5555556,277.001942 14.6299694,277.625243 12.1223242,277.625243 C9.19673802,277.625243 6.06218145,276.794175 2.71865443,275.132039 C-0.624872579,273.469903 -6.37155963,265.05534 -14.5214067,249.88835 C-22.6712538,234.721359 -27.1641182,224.64466 -28,219.658252 L-19.8501529,212.178641 C-15.6707441,215.918447 -9.40163099,217.78835 -1.04281346,217.78835 C1.04689093,217.78835 5.01732926,217.372816 10.8685015,216.541748 C16.7196738,215.295146 23.511213,212.386408 31.2431193,207.815534 C38.9750255,203.24466 43.8858308,200.335922 45.9755352,199.08932 C57.2599388,191.609709 65.2008155,187.454369 69.7981651,186.623301 C71.0519878,186.207767 74.1865443,186 79.2018349,186 C84.2171254,186 87.7696228,186.623301 89.8593272,187.869903 C99.0540265,191.194175 107.7263,195.868932 115.876147,201.894175 C124.025994,207.919417 129.981651,213.217476 133.743119,217.78835 C136.668705,221.112621 138.131498,225.475728 138.131498,230.87767 C138.131498,233.786408 137.504587,237.526214 136.250765,242.097087 C133.743119,248.330097 130.922018,268.795146 127.787462,303.492233 C124.652905,338.18932 123.294597,362.601942 123.712538,376.730097 C124.54842,381.300971 126.429154,383.586408 129.35474,383.586408 C131.026504,383.586408 132.698267,382.963107 134.370031,381.716505 L173.238532,355.537864 Z M312,413.615385 C312,422.641026 308.136546,431.666667 300.409639,440.692308 C292.682731,449.717949 283.807229,456.076923 273.783133,459.769231 C271.277108,460.589744 269.815261,461 269.39759,461 C267.309237,461 265.429719,460.179487 263.759036,458.538462 C262.088353,456.897436 261.044177,455.25641 260.626506,453.615385 C258.538153,444.179487 252.273092,434.230769 241.831325,423.769231 C231.389558,413.307692 220.53012,407.051282 209.253012,405 L208,393.307692 C225.959839,385.102564 243.502008,381 260.626506,381 C275.662651,381 287.983936,383.871795 297.590361,389.615385 C307.196787,395.358974 312,403.358974 312,413.615385 Z" id="形状" fill="#FFFFFF" fill-rule="nonzero"></path>
    </g>
</svg>