<?xml version="1.0" encoding="UTF-8"?>
<svg width="126px" height="288px" viewBox="0 0 126 288" version="1.1" xmlns="http://www.w3.org/2000/svg" xmlns:xlink="http://www.w3.org/1999/xlink">
    <title>title</title>
    <g id="页面-1" stroke="none" stroke-width="1" fill="none" fill-rule="evenodd">
        <g id="home-poem" transform="translate(-896, -409)">
            <g id="title" transform="translate(896, 409)">
                <g id="编组-3" transform="translate(0, 160)">
                    <rect id="矩形" fill="#DB0000" x="0" y="0" width="72" height="128" rx="33"></rect>
                    <g id="编组-2" transform="translate(16, 16)" fill="#FFFFFF" fill-rule="nonzero">
                        <path d="M22.4445382,15.0299197 L22.605162,14.6863787 C23.9972344,11.8521653 25.054674,9.08236578 25.7774808,6.37698023 C27.8923601,7.12131911 28.9497997,7.79408695 28.9497997,8.39528374 C28.9497997,8.7960816 28.4143872,9.01795184 27.3435623,9.06089447 C26.2727373,11.1078264 25.0479813,13.0688731 23.6692942,14.9440345 C27.4037962,17.7066769 29.2710472,20.2546061 29.2710472,22.5878222 C29.2710472,23.5611885 28.8293319,24.0478716 27.9459013,24.0478716 C27.4372595,24.0478716 27.0156221,23.4896174 26.6809894,22.3731091 C25.9314119,19.8251798 24.5192615,17.3774501 22.4445382,15.0299197 Z M4.23382175,18.8947562 L4.47475736,18.5941578 C7.60692028,14.2426382 10.1702075,9.90543282 12.1646189,5.58254162 C14.2259569,6.59885047 15.2566259,7.39328909 15.2566259,7.96585746 C15.2566259,8.32371269 14.6810575,8.52411162 13.5299207,8.56705425 C11.2410324,12.2028634 8.67774521,15.6168023 5.84005914,18.808871 C9.18638705,18.5798436 11.4351194,18.3937589 12.5862562,18.2506168 C12.0909997,17.1484227 11.3882708,16.0462286 10.4780696,14.9440345 L11.0603307,14.2569524 C14.4066586,16.6760538 16.0798225,18.9877986 16.0798225,21.1921868 C16.0798225,22.2514383 15.5979513,22.7810641 14.6342089,22.7810641 C14.1523377,22.7810641 13.8110122,22.2943809 13.6102325,21.3210147 C13.4897647,20.6768753 13.2956777,20.0184217 13.0279715,19.3456538 C12.492559,19.4744817 11.3280369,19.7249804 9.53440515,20.0971498 L9.29346954,20.1830351 L9.29346954,39.9581152 L6.98450329,39.9581152 L6.98450329,20.5695187 L6.70341174,20.6124614 C5.09717435,20.8844313 3.71179459,21.0919874 2.54727248,21.2351295 C2.25279563,22.2084957 1.96501143,22.6951788 1.68391988,22.6951788 C1.18866335,22.6951788 0.693406822,21.478471 0.198150292,19.0450554 C1.17527804,18.9877986 2.52050186,18.9376989 4.23382175,18.8947562 Z M15.8991208,15.051391 L16.0597446,14.6863787 C17.3179639,12.0668784 18.3218622,9.25413629 19.0714397,6.24815235 C21.2130895,7.03543386 22.2839145,7.69388748 22.2839145,8.22351323 C22.2839145,8.60999688 21.748502,8.84618133 20.6776771,8.93206659 C19.6737787,11.1221406 18.5092566,13.1118157 17.1841107,14.9010919 C18.4021741,15.8601439 19.5399256,17.098323 20.5973652,18.6156292 C21.748502,20.2331348 22.3240704,21.6072989 22.3240704,22.7381214 C22.3240704,23.7687445 21.8823551,24.284056 20.9989246,24.284056 C20.4233562,24.284056 19.9883335,23.6828592 19.6938567,22.4804657 C19.1584442,20.2760774 17.9604588,17.8999187 16.0999005,15.3519894 L15.8991208,15.051391 Z M28.9297217,14.9010919 C30.3084088,12.31022 31.5197795,9.48316364 32.5638338,6.41992286 C34.7054837,7.33603225 35.7763086,8.08037113 35.7763086,8.65293951 C35.7763086,9.03942316 35.2208182,9.23266498 34.1098373,9.23266498 C33.1594802,10.9360559 31.9012609,12.7825889 30.3351794,14.772264 C34.1232226,17.5349064 36.0172442,19.8895938 36.0172442,21.8363262 C36.0172442,22.8096925 35.5755289,23.2963756 34.6920984,23.2963756 C34.1299153,23.2963756 33.668122,22.7524356 33.3067186,21.6645557 C32.4366734,19.3456538 31.0646789,17.1770511 29.1907353,15.1587476 L28.9297217,14.9010919 Z M4.35428955,8.1805706 C5.70620603,5.58969872 6.7703383,2.86284185 7.54668638,0 C9.76864811,0.873166766 10.879629,1.60319144 10.879629,2.19007402 C10.879629,2.54792925 10.3442165,2.76979949 9.27339158,2.85568475 C8.17579602,4.93124509 6.82387955,6.9423915 5.21764215,8.88912396 C6.58294394,10.1774028 7.26559483,11.3726393 7.26559483,12.4748334 C7.26559483,13.5340849 6.82387955,14.0637106 5.94044898,14.0637106 C5.41842183,14.0637106 5.01016982,13.5984988 4.71569297,12.6680752 C4.14012457,10.6640859 2.89529058,8.86049554 0.981191022,7.2573041 L1.46306224,6.46286549 C2.57404311,7.00680544 3.53778554,7.57937381 4.35428955,8.1805706 Z M27.0022368,26.946499 L27.0022368,37.209787 L33.2464847,37.209787 L35.3948272,34.4399875 C36.4924228,35.5135532 37.3691607,36.5083907 38.025041,37.4245001 L37.5632477,38.304824 L14.3330394,38.304824 L13.8712461,37.209787 L24.6129587,37.209787 L24.6129587,26.946499 L16.1802124,26.946499 L15.778653,25.8514619 L31.7607151,25.8514619 L33.6279661,23.9619863 C34.5113967,24.6204399 35.3479786,25.3218362 36.137712,26.0661751 L35.6759188,26.946499 L27.0022368,26.946499 Z M11.2209544,23.6184453 C13.8177049,26.5671724 15.1160801,29.2153011 15.1160801,31.5628314 C15.1160801,32.7938534 14.6475942,33.4093644 13.7106224,33.4093644 C13.094898,33.4093644 12.726802,32.7938534 12.6063342,31.5628314 C12.4055545,29.272558 11.6827477,26.7818855 10.4379137,24.0908142 L11.2209544,23.6184453 Z M0.238306226,36.5012336 C1.34928709,33.0658234 2.0453233,29.0149022 2.32641484,24.34847 C4.74915625,24.7922105 5.96052695,25.2932078 5.96052695,25.8514619 C5.96052695,26.195003 5.53219698,26.47413 4.67553703,26.6888432 C3.97950083,30.782707 2.78820809,34.2109602 1.10165883,36.9736025 L0.238306226,36.5012336 Z M32.2225084,3.8648365 L34.2503831,1.22386489 C35.0133458,1.89663273 35.9703956,2.84852765 37.1215324,4.07954964 L36.6597392,4.95987351 L15.3770937,4.95987351 L14.9153004,3.8648365 L32.2225084,3.8648365 Z" id="形状"></path>
                        <path d="M8.50707177,63.1749037 L14.0806705,63.1749037 L14.0806705,56.0418848 C16.9163611,56.1005928 18.3342064,56.4528406 18.3342064,57.0986284 C18.3342064,57.4655532 17.7335429,57.8985245 16.5322158,58.3975423 L16.5322158,63.1749037 L22.6506024,63.1749037 L22.6506024,56.0418848 C25.486293,56.1446238 26.9041383,56.5115486 26.9041383,57.1426593 C26.9041383,57.5242612 26.3034748,57.9425555 25.1021477,58.3975423 L25.1021477,63.1749037 L31.2414877,63.1749037 L32.8339445,61.0614166 C34.6079972,62.55847 35.4950236,63.5198131 35.4950236,63.9454459 C35.4950236,64.1509238 35.3623188,64.3417247 35.0969094,64.5178486 L33.9863803,65.2883908 L33.9863803,83.385124 L35.7045574,83.385124 L37.6322682,80.5010947 C38.5821547,81.4991303 39.3713986,82.5338583 40,83.6052789 L39.5180723,84.507914 L0.377160817,84.507914 L0,83.385124 L5.53169199,83.385124 L5.53169199,61.6778504 C6.39776497,62.0888062 7.38955823,62.587824 8.50707177,63.1749037 Z M7.9832373,64.2976937 L7.9832373,72.927766 L14.0806705,72.927766 L14.0806705,64.2976937 L7.9832373,64.2976937 Z M31.5767417,83.385124 L31.5767417,74.050556 L25.1021477,74.050556 L25.1021477,83.385124 L31.5767417,83.385124 Z M31.5767417,72.927766 L31.5767417,64.2976937 L25.1021477,64.2976937 L25.1021477,72.927766 L31.5767417,72.927766 Z M22.6506024,64.2976937 L16.5322158,64.2976937 L16.5322158,72.927766 L22.6506024,72.927766 L22.6506024,64.2976937 Z M22.6506024,74.050556 L16.5322158,74.050556 L16.5322158,83.385124 L22.6506024,83.385124 L22.6506024,74.050556 Z M14.0806705,74.050556 L7.9832373,74.050556 L7.9832373,83.385124 L14.0806705,83.385124 L14.0806705,74.050556 Z M0.942902043,94.9652719 C5.8739305,93.0279088 10.106513,90.0704946 13.6406496,86.0930293 C15.9036145,87.3405738 17.0350969,88.2578859 17.0350969,88.8449656 C17.0350969,89.2265674 16.581107,89.4173684 15.6731273,89.4173684 C15.2959665,89.4173684 14.9746813,89.4026914 14.7092719,89.3733374 C10.9795705,92.3087361 6.60729876,94.5176236 1.59245678,96 L0.942902043,94.9652719 Z M23.4258774,86.2691532 C28.8039113,87.5460517 32.9526803,89.0944745 35.8721844,90.9144217 C37.4227344,91.8684263 38.1980094,92.7857384 38.1980094,93.666358 C38.1980094,94.7818095 37.6951283,95.3395353 36.6893662,95.3395353 C36.3820499,95.3395353 36.0258425,95.1707499 35.6207438,94.833179 C32.5755195,91.9564883 28.342937,89.4173684 22.9229963,87.2158193 L23.4258774,86.2691532 Z" id="形状"></path>
                    </g>
                </g>
                <g id="编组" transform="translate(50, 0)" fill-rule="nonzero">
                    <path d="M10.975923,46.7375271 L21.2616372,46.7375271 L23.9967897,43.0672451 C27.2327448,45.5140998 28.8507223,47.2190889 28.8507223,48.1822126 C28.8507223,48.494577 28.6067416,48.8069414 28.1187801,49.1193059 L26.2311396,50.329718 L26.2311396,72 L21.9550562,72 L21.9550562,66.8850325 L10.3595506,66.8850325 L10.3595506,72 L5.85232745,72 L5.85232745,44.0824295 C7.57303371,44.8633406 9.28089888,45.7483731 10.975923,46.7375271 Z M10.3595506,48.7288503 L10.3595506,64.8937093 L21.9550562,64.8937093 L21.9550562,48.7288503 L10.3595506,48.7288503 Z M51.9261637,14.3687636 L51.9261637,26.824295 L65.5634029,26.824295 L69.3772071,21.6312364 C70.9438202,23.0889371 72.4847512,24.9501085 74,27.2147505 L73.2295345,28.8156182 L30.776886,28.8156182 L29.7367576,26.824295 L47.4959872,26.824295 L47.4959872,14.3687636 L32.741573,14.3687636 L31.7784912,12.3774403 L47.4959872,12.3774403 L47.4959872,0 C52.7094703,0.234273319 55.3162119,0.976138829 55.3162119,2.22559653 C55.3162119,2.90238612 54.1861958,3.59219089 51.9261637,4.29501085 L51.9261637,12.3774403 L62.0192616,12.3774403 L65.4863563,7.4967462 C67.4125201,9.11062907 69.0176565,10.867679 70.3017657,12.7678959 L69.5313002,14.3687636 L51.9261637,14.3687636 Z M62.2889246,42.1691974 L62.2889246,64.8937093 C62.2889246,69.1887202 59.7078652,71.2841649 54.5457464,71.1800434 C54.4686998,69.7744035 53.5955056,68.7201735 51.9261637,68.0173536 C50.6163724,67.3665944 47.7784912,66.6637744 43.4125201,65.9088937 L43.4125201,63.8394794 C47.752809,64.308026 51.5922953,64.5422993 54.9309791,64.5422993 C56.882825,64.5422993 57.858748,63.670282 57.858748,61.9262473 L57.858748,42.1691974 L31.5088283,42.1691974 L30.5457464,40.1778742 L57.858748,40.1778742 L57.858748,29.0498915 C62.8154093,29.9349241 65.29374,30.9240781 65.29374,32.0173536 C65.29374,32.6420824 64.2921348,33.2017354 62.2889246,33.6963124 L62.2889246,40.1778742 L66.0642055,40.1778742 L69.4542536,35.0629067 C70.9951846,36.989154 72.3434992,38.7982646 73.4991974,40.4902386 L72.5361156,42.1691974 L62.2889246,42.1691974 Z M20.0674157,6.44251627 L23.611557,1.79609544 C24.8186196,2.81127983 26.1926164,4.28199566 27.7335474,6.20824295 L28.3499197,6.98915401 L27.5024077,8.43383948 L7.35473515,8.43383948 L6.81540931,6.44251627 L20.0674157,6.44251627 Z M20.6067416,26.7462039 L24.3434992,21.8655098 C25.9357945,23.4793926 27.4253612,25.1843818 28.812199,26.9804772 L27.964687,28.7375271 L6.19903692,28.7375271 L5.4670947,26.7462039 L20.6067416,26.7462039 Z M36.3242376,44.4338395 C44.5168539,47.9479393 48.6131621,51.5921909 48.6131621,55.3665944 C48.6131621,57.3969631 47.6629213,58.4121475 45.7624398,58.4121475 C44.6581059,58.4121475 43.823435,57.5531453 43.258427,55.835141 C42.1797753,52.6854664 39.4959872,49.3926247 35.2070626,45.9566161 L36.3242376,44.4338395 Z M20.6837881,36.5075922 L24.4975923,31.8611714 C26.4751204,33.7874187 27.9133226,35.4924078 28.812199,36.9761388 L27.8876404,38.4989154 L6.19903692,38.4989154 L5.4670947,36.5075922 L20.6837881,36.5075922 Z M23.8426966,16.516269 L27.7335474,11.7136659 C29.6597111,13.4316703 31.2905297,15.2147505 32.6260032,17.0629067 L31.8170144,18.5075922 L2.69341894,18.5075922 L2,16.516269 L23.8426966,16.516269 Z" id="诗" fill="#2E2E2E"></path>
                    <path d="M12.4268225,236.754738 L22.476906,236.754738 L25.3984418,233.164994 C28.670562,235.68822 30.3066221,237.340022 30.3066221,238.120401 C30.3066221,238.536603 30.0079763,238.90078 29.4106845,239.212932 L27.5798553,240.266444 L27.5798553,262 L23.1780746,262 L23.1780746,256.888517 L11.7256539,256.888517 L11.7256539,262 L7.2459655,262 L7.2459655,234.101449 C9.14171768,234.985879 10.86867,235.870308 12.4268225,236.754738 Z M11.7256539,238.744705 L11.7256539,254.898551 L23.1780746,254.898551 L23.1780746,238.744705 L11.7256539,238.744705 Z M41.7590428,221.0301 L51.7312187,221.0301 L54.4969393,217.557414 C57.6392135,220.002601 59.2103506,221.563359 59.2103506,222.239688 C59.2103506,222.525827 59.0025969,222.837978 58.5870896,223.176143 L56.8341681,224.463768 L56.8341681,245.494983 L52.4323873,245.494983 L52.4323873,240.110368 L40.8241514,240.110368 L40.8241514,246.74359 L36.344463,246.74359 L36.344463,218.298774 C36.6560935,218.402824 36.8638472,218.480862 36.967724,218.532887 C38.7595993,219.339279 40.3567056,220.171683 41.7590428,221.0301 Z M40.8241514,223.020067 L40.8241514,238.120401 L52.4323873,238.120401 L52.4323873,223.020067 L40.8241514,223.020067 Z M21.5809683,196.487179 L25.2426266,192 C26.7488407,193.508733 28.2420701,195.186548 29.722315,197.033445 L28.8653311,198.477146 L8.72621035,198.477146 L8.02504174,196.487179 L21.5809683,196.487179 Z M21.8146912,216.542921 L25.3984418,211.899666 C27.3461324,213.668525 28.9432387,215.398365 30.1897607,217.089186 L29.3327769,218.532887 L7.55759599,218.532887 L6.81747357,216.542921 L21.8146912,216.542921 Z M21.8925988,226.531773 L25.5932109,221.888517 C27.5668707,223.631364 29.099054,225.335191 30.1897607,227 L29.2548692,228.521739 L7.63550362,228.521739 L6.73956594,226.531773 L21.8925988,226.531773 Z M53.1725097,209.12932 L56.6004452,204.329989 C58.7558894,206.306949 60.3789649,208.062802 61.4696717,209.597547 L60.6126878,211.119287 L35.1368948,211.119287 L34.3578186,209.12932 L53.1725097,209.12932 Z M25.0089037,206.554069 L28.8653311,201.832776 C30.3715452,203.211446 31.9556669,204.941286 33.6176962,207.022297 L32.8386199,208.544036 L3.62326099,208.544036 L3,206.554069 L25.0089037,206.554069 Z M64.9365609,196.487179 L68.0528659,192.663322 C71.3509553,195.316611 73,196.994426 73,197.696767 C73,198.060944 72.7532925,198.399108 72.2598776,198.71126 L70.4290484,199.998885 L70.4290484,254.352285 C70.4290484,258.878484 67.7672046,261.141583 62.443517,261.141583 C62.3656093,259.476774 61.5086255,258.306206 59.8725654,257.629877 C58.4182897,257.005574 55.6265999,256.381271 51.4974958,255.756968 L51.4974958,253.610925 C56.1200148,254.105165 59.8465962,254.352285 62.6772398,254.352285 C64.7028381,254.352285 65.7156372,253.415831 65.7156372,251.542921 L65.7156372,198.477146 L32.6048971,198.477146 L31.9426822,196.487179 L64.9365609,196.487179 Z" id="词" fill="#2E2E2E"></path>
                    <g id="Chinese-Poetry-Class" transform="translate(0, 96)" fill="#8B5008">
                        <path d="M13.0857662,10.0037407 C12.658449,11.574841 11.9188616,12.7772137 10.867004,13.6108588 C9.80857229,14.4509165 8.54963021,14.8709453 7.09017776,14.8709453 C5.17711172,14.8709453 3.59603823,14.2617432 2.34695731,13.0433389 C0.920375416,11.6710308 0.207084469,9.82418639 0.207084469,7.50280554 C0.207084469,5.18783733 0.933523637,3.30892962 2.38640197,1.8660824 C3.66177933,0.622027468 5.23627871,0 7.10990009,0 C8.58907487,0 9.88746161,0.384759258 11.0050603,1.15427777 C11.281173,1.34024475 11.4718222,1.43322824 11.5770079,1.43322824 C11.7808053,1.43322824 11.8958523,1.16389676 11.9221487,0.625233795 L12.5434021,0.625233795 L12.5434021,4.58825415 L11.941871,4.58825415 C11.7512218,3.64559397 11.3600623,2.84401218 10.7683924,2.18350879 C9.86116517,1.19596003 8.67782535,0.702185646 7.21837291,0.702185646 C5.25928809,0.702185646 3.8031227,1.52941805 2.84987674,3.18388286 C2.1793175,4.38304922 1.84403789,5.77138887 1.84403789,7.34890183 C1.84403789,9.2342222 2.34695731,10.7764656 3.35279616,11.9756319 C4.39150556,13.2260995 5.72604991,13.8513333 7.35642922,13.8513333 C9.85459106,13.8513333 11.5178409,12.4886443 12.3461788,9.76326618 L13.0857662,10.0037407 Z" id="路径"></path>
                        <path d="M25.8263916,14.3803773 L20.9648372,14.3803773 L20.9648372,13.8320953 C21.3921543,13.8320953 21.7635915,13.7968257 22.0791488,13.7262865 C22.506466,13.6108588 22.7201246,13.2293058 22.7201246,12.5816277 L22.7201246,8.44546572 C22.7201246,6.45754288 21.9739631,5.46358147 20.4816401,5.46358147 C19.0221876,5.46358147 17.9900523,6.25233795 17.3852342,7.82985091 L17.3852342,12.5816277 C17.3852342,13.1715919 17.5397258,13.5274943 17.848709,13.6493347 C18.1576921,13.7711751 18.5915834,13.8320953 19.1503828,13.8320953 L19.1503828,14.3803773 L14.2789672,14.3803773 L14.2789672,13.8320953 C14.7523031,13.8320953 15.1303144,13.7904131 15.4130012,13.7070486 C15.8403183,13.5916208 16.0539769,13.2164805 16.0539769,12.5816277 L16.0539769,2.29893657 C16.0539769,1.69614706 15.8994853,1.33703842 15.5905021,1.22161065 C15.3867047,1.13824614 14.9561005,1.09656389 14.2986895,1.09656389 L14.2986895,0.490568054 C15.4097141,0.471330091 16.4385623,0.37193395 17.3852342,0.192379629 L17.3852342,6.53128841 C18.2530167,5.2551702 19.3804766,4.6171111 20.7676139,4.6171111 C22.9699407,4.6171111 24.0711042,5.80024582 24.0711042,8.16651526 L24.0711042,12.5816277 C24.0711042,13.1715919 24.2255958,13.5274943 24.534579,13.6493347 C24.836988,13.7711751 25.2675922,13.8320953 25.8263916,13.8320953 L25.8263916,14.3803773 Z" id="路径"></path>
                        <path d="M29.3665499,0.432854166 C29.6558107,0.432854166 29.8990528,0.532250307 30.0962761,0.731042591 C30.3000735,0.929834874 30.4019722,1.16710308 30.4019722,1.44284722 C30.4019722,2.09693796 30.0568315,2.42398333 29.3665499,2.42398333 C28.6959907,2.42398333 28.360711,2.09693796 28.360711,1.44284722 C28.360711,0.769518517 28.6959907,0.432854166 29.3665499,0.432854166 Z M31.7529519,14.3803773 L26.9505644,14.3803773 L26.9505644,13.8320953 C27.3910298,13.8320953 27.7526059,13.7904131 28.0352926,13.7070486 C28.4823321,13.5916208 28.7058518,13.2164805 28.7058518,12.5816277 L28.7058518,6.69481109 C28.7058518,6.07278363 28.5447861,5.704056 28.2226547,5.58862823 C28.0188573,5.51167637 27.5948272,5.47320045 26.9505644,5.47320045 L26.9505644,4.8768236 C28.0484408,4.85758564 29.077289,4.75177684 30.0371091,4.55939721 L30.0371091,12.5816277 C30.0371091,13.1715919 30.1916007,13.5274943 30.5005839,13.6493347 C30.802993,13.7711751 31.2204489,13.8320953 31.7529519,13.8320953 L31.7529519,14.3803773 Z" id="形状"></path>
                        <path d="M44.5724666,14.3803773 L39.7109122,14.3803773 L39.7109122,13.8320953 C40.1448034,13.8320953 40.5063795,13.7968257 40.7956403,13.7262865 C41.2426798,13.6108588 41.4661996,13.2293058 41.4661996,12.5816277 L41.4661996,8.44546572 C41.4661996,6.45754288 40.7200381,5.46358147 39.2277151,5.46358147 C37.7616885,5.46358147 36.7361273,6.25233795 36.1510315,7.82985091 L36.1510315,12.5816277 C36.1510315,13.1844173 36.3351066,13.5531449 36.7032568,13.6878106 C36.9662212,13.7840004 37.3639548,13.8320953 37.8964578,13.8320953 L37.8964578,14.3803773 L33.0250422,14.3803773 L33.0250422,13.8320953 C33.5049522,13.8320953 33.8763894,13.7904131 34.1393538,13.7070486 C34.5798192,13.5916208 34.8000519,13.2164805 34.8000519,12.5816277 L34.8000519,6.69481109 C34.8000519,6.07278363 34.6389862,5.704056 34.3168548,5.58862823 C34.0933351,5.51167637 33.6627309,5.47320045 33.0250422,5.47320045 L33.0250422,4.8768236 C34.1820855,4.85758564 35.1977856,4.75177684 36.0721422,4.55939721 L36.0721422,6.62747822 C36.9004801,5.28723347 38.0476623,4.6171111 39.5136889,4.6171111 C41.7160157,4.6171111 42.8171792,5.80024582 42.8171792,8.16651526 L42.8171792,12.5816277 C42.8171792,13.1780046 43.0111154,13.5467322 43.3989879,13.6878106 C43.64223,13.7840004 44.0333896,13.8320953 44.5724666,13.8320953 L44.5724666,14.3803773 Z" id="路径"></path>
                        <path d="M55.1140522,9.34964998 L47.5012326,9.34964998 L47.5012326,9.68631433 C47.5012326,10.9752578 47.9055404,12.0269331 48.714156,12.8413402 C49.3912893,13.495431 50.2130531,13.8224764 51.1794473,13.8224764 C52.6257515,13.8224764 53.7433502,13.1395287 54.5322434,11.7736333 L55.0746075,12.1872495 C54.2133991,13.8545396 52.836123,14.6881847 50.9427793,14.6881847 C49.5424938,14.6881847 48.3821634,14.2425052 47.461788,13.3511463 C46.5479867,12.4341367 46.091086,11.2061134 46.091086,9.66707636 C46.091086,8.03826217 46.5742831,6.74931866 47.5406773,5.80024582 C48.3821634,4.9601881 49.4537434,4.54015925 50.7554172,4.54015925 C52.0176463,4.54015925 53.0399204,4.93453749 53.8222395,5.72329397 C54.6834479,6.56335168 55.1140522,7.65350291 55.1140522,8.99374766 L55.1140522,9.34964998 Z M53.7433502,8.59936942 C53.7039055,7.47074226 53.3686259,6.59862128 52.7375114,5.98300647 C52.1918602,5.46999412 51.524588,5.21348795 50.7356948,5.21348795 C49.7955971,5.21348795 49.013278,5.61427884 48.3887375,6.41586063 C47.941698,6.98658686 47.6688725,7.71442313 47.5702608,8.59936942 L53.7433502,8.59936942 Z" id="形状"></path>
                        <path d="M63.7425717,7.79137498 C63.6373859,7.04750708 63.3678474,6.46395554 62.9339561,6.04072035 C62.3685827,5.48923208 61.6881623,5.21348795 60.892695,5.21348795 C60.2352839,5.21348795 59.6896328,5.42189921 59.2557415,5.83872174 C58.9467584,6.16576711 58.7922668,6.54732004 58.7922668,6.98338054 C58.7922668,7.75289905 59.4726872,8.34606958 60.833528,8.76289211 L61.3561697,8.91679581 C62.4803425,9.2694918 63.2758099,9.61898146 63.7425717,9.96526479 C64.4131309,10.4590392 64.7484105,11.1131299 64.7484105,11.927537 C64.7484105,12.9022605 64.3703992,13.6397157 63.6143765,14.1399027 C63.0292807,14.5310747 62.3094157,14.7266606 61.4547814,14.7266606 C60.6987587,14.7266606 59.8934302,14.4990114 59.0387959,14.0437129 C58.7429609,13.8705713 58.5194412,13.7840004 58.3682367,13.7840004 C58.151291,13.7840004 58.0428182,14.014856 58.0428182,14.4765671 L57.4610095,14.4765671 L57.4610095,10.869449 L58.0822629,10.869449 C58.148004,11.7928713 58.4372648,12.5078822 58.9500454,13.0144819 C59.6074564,13.6685727 60.4292202,13.995618 61.4153367,13.995618 C62.8156222,13.995618 63.5157649,13.3928285 63.5157649,12.1872495 C63.5157649,11.6485865 63.3086804,11.2157324 62.8945115,10.888687 C62.6118247,10.6706568 61.9577008,10.3885 60.9321396,10.0422166 L60.3306085,9.84021803 C59.403659,9.53882328 58.7824056,9.26307914 58.4668483,9.01298562 C57.8751784,8.55768717 57.5793435,7.96131032 57.5793435,7.22385507 C57.5793435,6.50563779 57.8554561,5.88681665 58.4076813,5.36739165 C59.0124995,4.81590338 59.8013927,4.54015925 60.774361,4.54015925 C61.6158471,4.54015925 62.3685827,4.73895153 63.0325678,5.1365361 C63.223217,5.23913857 63.3842827,5.2904398 63.5157649,5.2904398 C63.6669694,5.2904398 63.762294,5.1012665 63.8017387,4.7229199 L64.3046581,4.7229199 L64.3046581,7.79137498 L63.7425717,7.79137498 Z" id="路径"></path>
                        <path d="M76,9.34964998 L68.3871805,9.34964998 L68.3871805,9.68631433 C68.3871805,10.9752578 68.7914883,12.0269331 69.6001038,12.8413402 C70.2772371,13.495431 71.0990009,13.8224764 72.0653951,13.8224764 C73.5116993,13.8224764 74.629298,13.1395287 75.4181913,11.7736333 L75.9605553,12.1872495 C75.0993469,13.8545396 73.7220708,14.6881847 71.8287271,14.6881847 C70.4284417,14.6881847 69.2681112,14.2425052 68.3477358,13.3511463 C67.4339345,12.4341367 66.9770339,11.2061134 66.9770339,9.66707636 C66.9770339,8.03826217 67.460231,6.74931866 68.4266251,5.80024582 C69.2681112,4.9601881 70.3396912,4.54015925 71.641365,4.54015925 C72.9035941,4.54015925 73.9258683,4.93453749 74.7081874,5.72329397 C75.5693958,6.56335168 76,7.65350291 76,8.99374766 L76,9.34964998 Z M74.629298,8.59936942 C74.5898534,7.47074226 74.2545738,6.59862128 73.6234592,5.98300647 C73.0778081,5.46999412 72.4105359,5.21348795 71.6216427,5.21348795 C70.6815449,5.21348795 69.8992258,5.61427884 69.2746854,6.41586063 C68.8276459,6.98658686 68.5548203,7.71442313 68.4562086,8.59936942 L74.629298,8.59936942 Z" id="形状"></path>
                        <path d="M0,29.0550954 L6.32100688,29.0550954 C8.41157389,29.0550954 9.89732278,29.5360445 10.7782535,30.4979426 C11.3567752,31.1199701 11.6460361,31.8798696 11.6460361,32.7776412 C11.6460361,35.4581307 9.76255352,36.7983755 5.99558843,36.7983755 L3.45140781,36.7983755 L3.45140781,40.8575856 C3.45140781,41.5052637 3.63876995,41.9252926 4.01349423,42.1176722 C4.28960685,42.2651633 4.82210977,42.3581467 5.61100298,42.3966227 L5.61100298,42.9449046 L0,42.9449046 L0,42.3966227 C0.703429782,42.3517341 1.18991393,42.2715759 1.45945245,42.1561481 C1.86047316,41.9765938 2.06098352,41.5437396 2.06098352,40.8575856 L2.06098352,31.2097472 C2.06098352,30.5684818 1.93278837,30.1612783 1.67639808,29.9881366 C1.4265819,29.795757 0.867782535,29.6707102 0,29.6129963 L0,29.0550954 Z M3.45140781,36.0480949 L5.41377968,36.0480949 C8.51675966,36.0480949 10.0682496,34.9996259 10.0682496,32.902688 C10.0682496,30.7736867 8.67125124,29.7091861 5.87725444,29.7091861 L5.24613987,29.7091861 C4.89113793,29.7091861 4.56900653,29.7412494 4.27974569,29.8053759 C3.72752044,29.9464543 3.45140781,30.4145781 3.45140781,31.2097472 L3.45140781,36.0480949 Z" id="形状"></path>
                        <path d="M17.907876,33.0662107 C19.2358462,33.0662107 20.3501579,33.5054775 21.250811,34.3840111 C22.2237792,35.333084 22.7102634,36.5739326 22.7102634,38.1065569 C22.7102634,39.7225458 22.2237792,41.0050767 21.250811,41.9541495 C20.3435838,42.8198579 19.2292721,43.252712 17.907876,43.252712 C16.5733316,43.252712 15.4590199,42.8198579 14.564941,41.9541495 C13.5985468,41.0050767 13.1153497,39.7353711 13.1153497,38.1450329 C13.1153497,36.5867579 13.6084079,35.3266713 14.5945245,34.3647732 C15.4820293,33.4990648 16.5864798,33.0662107 17.907876,33.0662107 Z M17.907876,33.7587773 C16.9086112,33.7587773 16.1065698,34.1723935 15.5017517,34.9996259 C14.9100817,35.7947951 14.6142468,36.8464704 14.6142468,38.1546518 C14.6142468,39.5269599 14.9363782,40.6074921 15.580641,41.3962486 C16.1723109,42.1337038 16.9480559,42.5024315 17.907876,42.5024315 C19.104364,42.5024315 19.9852948,41.9894191 20.5506682,40.9633944 C20.9911336,40.1554 21.2113663,39.2255651 21.2113663,38.1738898 C21.2113663,36.7887565 20.8892349,35.6921926 20.2449721,34.8841982 C19.640154,34.1339176 18.8611219,33.7587773 17.907876,33.7587773 Z" id="形状"></path>
                        <path d="M34.030881,37.9141773 L26.4180615,37.9141773 L26.4180615,38.2508417 C26.4180615,39.5397852 26.8223693,40.5914605 27.6309848,41.4058676 C28.3081182,42.0599583 29.1298819,42.3870037 30.0962761,42.3870037 C31.5425803,42.3870037 32.6601791,41.704056 33.4490723,40.3381606 L33.9914364,40.7517768 C33.1302279,42.419067 31.7529519,43.252712 29.8596081,43.252712 C28.4593227,43.252712 27.2989923,42.8070325 26.3786168,41.9156736 C25.4648155,40.998664 25.0079149,39.7706407 25.0079149,38.2316037 C25.0079149,36.6027895 25.491112,35.313846 26.4575062,34.3647732 C27.2989923,33.5247154 28.3705722,33.1046866 29.672246,33.1046866 C30.9344752,33.1046866 31.9567493,33.4990648 32.7390684,34.2878213 C33.6002768,35.127879 34.030881,36.2180302 34.030881,37.558275 L34.030881,37.9141773 Z M32.6601791,37.1638968 C32.6207344,36.0352696 32.2854548,35.1631486 31.6543402,34.5475338 C31.1086891,34.0345215 30.4414169,33.7780153 29.6525237,33.7780153 C28.7124259,33.7780153 27.9301068,34.1788062 27.3055664,34.980388 C26.8585269,35.5511142 26.5857013,36.2789505 26.4870897,37.1638968 L32.6601791,37.1638968 Z" id="形状"></path>
                        <path d="M41.850785,42.0503393 C41.1670775,42.9352856 40.3650361,43.3777588 39.4446607,43.3777588 C37.9523377,43.3777588 37.2061762,42.5505264 37.2061762,40.8960616 L37.2061762,34.1723935 L35.4903335,34.1723935 L35.4903335,33.5567787 C36.3252454,33.5375407 36.9103412,33.2906536 37.2456209,32.8161171 C37.5414558,32.4121199 37.7715497,31.7291722 37.9359024,30.7672741 L38.5374335,30.7672741 L38.5374335,33.4413509 L41.5253665,33.4413509 L41.5253665,34.1723935 L38.5374335,34.1723935 L38.5374335,40.5209213 C38.5374335,41.861166 38.9548895,42.5312884 39.7898015,42.5312884 C40.3880455,42.5312884 40.9271225,42.2266873 41.4070326,41.6174852 L41.850785,42.0503393 Z" id="路径"></path>
                        <path d="M45.6276113,35.6344787 C45.9300203,34.9226741 46.4033563,34.3038529 47.047619,33.7780153 C47.6129925,33.3419548 48.2112365,33.1239245 48.8423511,33.1239245 C49.611522,33.1239245 49.9961074,33.4605889 49.9961074,34.1339176 C49.9961074,34.7367071 49.7134207,35.0381019 49.1480472,35.0381019 C48.5826738,35.0381019 48.299987,34.7687704 48.299987,34.2301074 C48.299987,34.1852188 48.3131352,34.0922353 48.3394317,33.9511569 C47.8135029,33.9960455 47.2744258,34.3262972 46.7222006,34.941912 C46.2817352,35.4420991 45.9497427,36.0513012 45.7262229,36.7695185 L45.7262229,41.1461551 C45.7262229,41.7425319 45.8741404,42.0984342 46.1699753,42.213862 C46.4789585,42.3357025 46.9391462,42.3966227 47.5505385,42.3966227 L47.5505385,42.9449046 L42.6002336,42.9449046 L42.6002336,42.3966227 C43.0801436,42.3966227 43.4515808,42.3549404 43.7145452,42.2715759 C44.1550106,42.1561481 44.3752433,41.7810079 44.3752433,41.1461551 L44.3752433,35.2593384 C44.3752433,34.637311 44.2141776,34.2685833 43.8920462,34.1531556 C43.6685264,34.0762037 43.2444963,34.0377278 42.6199559,34.0377278 L42.6199559,33.4413509 C43.7704252,33.422113 44.7729769,33.3163042 45.6276113,33.1239245 L45.6276113,35.6344787 Z" id="路径"></path>
                        <path d="M60.9124173,33.9896329 C60.0709312,34.0088708 59.4989836,34.3840111 59.1965745,35.1150537 L55.0154405,45.2630791 C54.5486787,46.4045316 53.848536,46.9752578 52.9150123,46.9752578 C51.942044,46.9752578 51.4555599,46.6001176 51.4555599,45.849837 C51.4555599,45.2213969 51.7809783,44.9071768 52.4318152,44.9071768 C53.0103369,44.9071768 53.2995978,45.1893336 53.2995978,45.7536472 C53.2995978,45.8434244 53.2930237,45.9075509 53.2798754,45.9460268 L53.2404308,46.1287875 C53.7071926,46.1095495 54.088491,45.7087586 54.3843259,44.9264148 L55.1732192,42.8583338 L51.7415337,35.3362903 C51.5048657,34.8104526 51.2681977,34.4545503 51.0315298,34.2685833 C50.8277324,34.1018543 50.4793045,34.0088708 49.9862463,33.9896329 L49.9862463,33.4413509 L54.265992,33.4413509 L54.265992,33.9896329 C53.3916353,34.0088708 52.954457,34.2269011 52.954457,34.6437236 C52.954457,34.765564 53.0070499,34.96115 53.1122356,35.2304815 L55.8043337,41.3962486 L58.269625,35.2689574 C58.3616626,35.0509272 58.4076813,34.8681665 58.4076813,34.7206755 C58.4076813,34.2525517 57.9442066,34.0088708 57.017257,33.9896329 L57.017257,33.4413509 L60.9124173,33.4413509 L60.9124173,33.9896329 Z" id="路径"></path>
                        <path d="M13.0857662,67.1327954 C12.658449,68.7038957 11.9188616,69.9062684 10.867004,70.7399134 C9.80857229,71.5799711 8.54963021,72 7.09017776,72 C5.17711172,72 3.59603823,71.3907978 2.34695731,70.1723935 C0.920375416,68.8000855 0.207084469,66.9532411 0.207084469,64.6318602 C0.207084469,62.316892 0.933523637,60.4379843 2.38640197,58.9951371 C3.66177933,57.7510821 5.23627871,57.1290547 7.10990009,57.1290547 C8.58907487,57.1290547 9.88746161,57.5138139 11.0050603,58.2833324 C11.281173,58.4692994 11.4718222,58.5622829 11.5770079,58.5622829 C11.7808053,58.5622829 11.8958523,58.2929514 11.9221487,57.7542885 L12.5434021,57.7542885 L12.5434021,61.7173088 L11.941871,61.7173088 C11.7512218,60.7746486 11.3600623,59.9730669 10.7683924,59.3125635 C9.86116517,58.3250147 8.67782535,57.8312403 7.21837291,57.8312403 C5.25928809,57.8312403 3.8031227,58.6584727 2.84987674,60.3129375 C2.1793175,61.5121039 1.84403789,62.9004435 1.84403789,64.4779565 C1.84403789,66.3632769 2.34695731,67.9055202 3.35279616,69.1046866 C4.39150556,70.3551542 5.72604991,70.980388 7.35642922,70.980388 C9.85459106,70.980388 11.5178409,69.6176989 12.3461788,66.8923208 L13.0857662,67.1327954 Z" id="路径"></path>
                        <path d="M19.1898274,71.5094319 L14.2789672,71.5094319 L14.2789672,70.96115 C14.7128584,70.96115 15.0842957,70.9194677 15.3932788,70.8361032 C15.8468924,70.7399134 16.0736992,70.3679795 16.0736992,69.7203014 L16.0736992,59.4279912 C16.0736992,58.8316144 15.9192076,58.4725057 15.6102245,58.3506653 C15.4064271,58.2673008 14.9692487,58.2256186 14.2986895,58.2256186 L14.2986895,57.6196227 C15.3834177,57.6003848 16.41884,57.5009886 17.4049565,57.3214343 L17.4049565,69.7203014 C17.4049565,70.3166782 17.5890316,70.6821995 17.9571818,70.8168653 C18.2201462,70.9130551 18.6310281,70.96115 19.1898274,70.96115 L19.1898274,71.5094319 Z" id="路径"></path>
                        <path d="M30.2934994,70.7783894 C29.9976645,71.4581307 29.5144674,71.7980014 28.8439081,71.7980014 C27.8972363,71.7980014 27.404178,71.2336878 27.3647334,70.1050607 C26.5429696,71.2593384 25.3990744,71.8364773 23.9330479,71.8364773 C23.045543,71.8364773 22.3059556,71.6056218 21.7142857,71.1439107 C21.0831711,70.6501363 20.7676139,69.9800139 20.7676139,69.1335435 C20.7676139,67.0686688 22.5787812,65.9272164 26.2011159,65.7091861 L27.226677,65.6514722 L27.226677,65.2955699 C27.226677,63.3268851 26.4312097,62.3425426 24.8402751,62.3425426 C23.7818433,62.3425426 23.0619783,62.6824133 22.6806799,63.3621547 C23.0619783,63.4198685 23.2526275,63.6571367 23.2526275,64.0739593 C23.2526275,64.6382729 22.9567925,64.9204296 22.3651226,64.9204296 C21.7142857,64.9204296 21.3888673,64.5997969 21.3888673,63.9585315 C21.3888673,63.4198685 21.6978504,62.9260942 22.3158168,62.4772084 C23.0521171,61.9385454 23.9297608,61.6692139 24.9487479,61.6692139 C27.3154275,61.6692139 28.4987674,62.8202854 28.4987674,65.1224283 L28.4987674,69.1239245 C28.4987674,70.432106 28.7288612,71.0861968 29.1890489,71.0861968 C29.4717357,71.0861968 29.7116907,70.8906108 29.908914,70.4994389 L30.2934994,70.7783894 Z M27.226677,69.0373537 L27.226677,66.3440389 L26.3786168,66.3825148 C23.5780459,66.5171806 22.1777605,67.3957142 22.1777605,69.0181157 C22.1777605,69.6209053 22.3716967,70.1146796 22.7595692,70.4994389 C23.1408676,70.8649602 23.6207776,71.0477208 24.1992993,71.0477208 C24.9816184,71.0477208 25.6883353,70.8104526 26.3194499,70.3359162 C26.7401929,70.0024582 27.042602,69.569604 27.226677,69.0373537 Z" id="形状"></path>
                        <path d="M38.1528481,64.9204296 C38.0476623,64.1765617 37.7781238,63.5930102 37.3442325,63.169775 C36.778859,62.6182868 36.0984386,62.3425426 35.3029713,62.3425426 C34.6455603,62.3425426 34.0999092,62.5509539 33.6660179,62.9677764 C33.3570347,63.2948218 33.2025431,63.6763747 33.2025431,64.1124352 C33.2025431,64.8819537 33.8829635,65.4751242 35.2438043,65.8919468 L35.7664461,66.0458505 C36.8906189,66.3985465 37.6860862,66.7480361 38.1528481,67.0943195 C38.8234073,67.5880938 39.1586869,68.2421846 39.1586869,69.0565917 C39.1586869,70.0313151 38.7806756,70.7687704 38.0246529,71.2689574 C37.4395571,71.6601293 36.7196921,71.8557153 35.8650577,71.8557153 C35.1090351,71.8557153 34.3037066,71.6280661 33.4490723,71.1727676 C33.1532373,70.9996259 32.9297176,70.9130551 32.778513,70.9130551 C32.5615674,70.9130551 32.4530946,71.1439107 32.4530946,71.6056218 L31.8712858,71.6056218 L31.8712858,67.9985037 L32.4925393,67.9985037 C32.5582804,68.9219259 32.8475412,69.6369369 33.3603218,70.1435366 C34.0177328,70.7976273 34.8394966,71.1246727 35.8256131,71.1246727 C37.2258985,71.1246727 37.9260413,70.5218832 37.9260413,69.3163042 C37.9260413,68.7776412 37.7189568,68.344787 37.3047879,68.0177417 C37.0221011,67.7997114 36.3679772,67.5175546 35.342416,67.1712713 L34.7408849,66.9692727 C33.8139354,66.6678779 33.192682,66.3921338 32.8771247,66.1420403 C32.2854548,65.6867418 31.9896198,65.090365 31.9896198,64.3529097 C31.9896198,63.6346925 32.2657325,63.0158713 32.8179577,62.4964463 C33.4227758,61.9449581 34.211669,61.6692139 35.1846373,61.6692139 C36.0261234,61.6692139 36.778859,61.8680062 37.4428442,62.2655908 C37.6334934,62.3681932 37.7945591,62.4194945 37.9260413,62.4194945 C38.0772458,62.4194945 38.1725704,62.2303212 38.2120151,61.8519746 L38.7149345,61.8519746 L38.7149345,64.9204296 L38.1528481,64.9204296 Z" id="路径"></path>
                        <path d="M47.7674841,64.9204296 C47.6622983,64.1765617 47.3927598,63.5930102 46.9588686,63.169775 C46.3934951,62.6182868 45.7130747,62.3425426 44.9176074,62.3425426 C44.2601964,62.3425426 43.7145452,62.5509539 43.280654,62.9677764 C42.9716708,63.2948218 42.8171792,63.6763747 42.8171792,64.1124352 C42.8171792,64.8819537 43.4975996,65.4751242 44.8584404,65.8919468 L45.3810821,66.0458505 C46.505255,66.3985465 47.3007223,66.7480361 47.7674841,67.0943195 C48.4380433,67.5880938 48.773323,68.2421846 48.773323,69.0565917 C48.773323,70.0313151 48.3953116,70.7687704 47.639289,71.2689574 C47.0541932,71.6601293 46.3343281,71.8557153 45.4796938,71.8557153 C44.7236711,71.8557153 43.9183426,71.6280661 43.0637083,71.1727676 C42.7678734,70.9996259 42.5443536,70.9130551 42.3931491,70.9130551 C42.1762035,70.9130551 42.0677306,71.1439107 42.0677306,71.6056218 L41.4859219,71.6056218 L41.4859219,67.9985037 L42.1071753,67.9985037 C42.1729164,68.9219259 42.4621772,69.6369369 42.9749578,70.1435366 C43.6323688,70.7976273 44.4541326,71.1246727 45.4402491,71.1246727 C46.8405346,71.1246727 47.5406773,70.5218832 47.5406773,69.3163042 C47.5406773,68.7776412 47.3335928,68.344787 46.9194239,68.0177417 C46.6367372,67.7997114 45.9826132,67.5175546 44.957052,67.1712713 L44.355521,66.9692727 C43.4285714,66.6678779 42.807318,66.3921338 42.4917607,66.1420403 C41.9000908,65.6867418 41.6042559,65.090365 41.6042559,64.3529097 C41.6042559,63.6346925 41.8803685,63.0158713 42.4325937,62.4964463 C43.0374119,61.9449581 43.8263051,61.6692139 44.7992734,61.6692139 C45.6407595,61.6692139 46.3934951,61.8680062 47.0574802,62.2655908 C47.2481294,62.3681932 47.4091951,62.4194945 47.5406773,62.4194945 C47.6918818,62.4194945 47.7872064,62.2303212 47.8266511,61.8519746 L48.3295705,61.8519746 L48.3295705,64.9204296 L47.7674841,64.9204296 Z" id="路径"></path>
                        <path d="M53.0333463,57.5619088 C53.3226072,57.5619088 53.5658492,57.661305 53.7630725,57.8600973 C53.9668699,58.0588895 54.0687687,58.2961578 54.0687687,58.5719019 C54.0687687,59.2259926 53.7236279,59.553038 53.0333463,59.553038 C52.3627871,59.553038 52.0275075,59.2259926 52.0275075,58.5719019 C52.0275075,57.8985732 52.3627871,57.5619088 53.0333463,57.5619088 Z M55.4197483,71.5094319 L50.6173608,71.5094319 L50.6173608,70.96115 C51.0578262,70.96115 51.4194023,70.9194677 51.702089,70.8361032 C52.1491285,70.7206755 52.3726482,70.3455352 52.3726482,69.7106824 L52.3726482,63.8238658 C52.3726482,63.2018383 52.2115825,62.8331107 51.8894511,62.7176829 C51.6856537,62.640731 51.2616236,62.6022551 50.6173608,62.6022551 L50.6173608,62.0058783 C51.7152372,61.9866403 52.7440855,61.8808315 53.7039055,61.6884519 L53.7039055,69.7106824 C53.7039055,70.3006466 53.8583971,70.6565489 54.1673803,70.7783894 C54.4697894,70.9002298 54.8872454,70.96115 55.4197483,70.96115 L55.4197483,71.5094319 Z" id="形状"></path>
                        <path d="M65.8824445,69.3163042 C64.9949397,70.9835943 63.6340989,71.8172394 61.7999221,71.8172394 C60.4588037,71.8172394 59.3477791,71.3779725 58.4668483,70.4994389 C57.5398988,69.569604 57.076424,68.3415807 57.076424,66.815369 C57.076424,65.2122054 57.5694823,63.9296746 58.5555988,62.9677764 C59.4233813,62.1020681 60.5245448,61.6692139 61.8590891,61.6692139 C62.9898361,61.6692139 63.9332209,61.9577834 64.6892435,62.5349222 C65.2677652,62.983808 65.5570261,63.4647571 65.5570261,63.9777695 C65.5570261,64.6446855 65.2480429,64.9781435 64.6300766,64.9781435 C64.0384066,64.9781435 63.7425717,64.7088121 63.7425717,64.1701491 C63.7425717,63.7982151 63.9036374,63.5449153 64.2257688,63.4102496 C63.7392846,62.6984449 62.9734008,62.3425426 61.9281173,62.3425426 C60.7513516,62.3425426 59.8704208,62.855555 59.285325,63.8815797 C58.8119891,64.7023994 58.5753211,65.6482659 58.5753211,66.7191792 C58.5753211,67.9247582 58.8974525,68.9219259 59.5417153,69.7106824 C60.1859781,70.5122642 61.0208901,70.9130551 62.0464513,70.9130551 C63.4270144,70.9130551 64.5117426,70.2365201 65.3006358,68.88345 L65.8824445,69.3163042 Z" id="路径"></path>
                        <path d="M74.2644349,64.9204296 C74.1592492,64.1765617 73.8897107,63.5930102 73.4558194,63.169775 C72.8904459,62.6182868 72.2100255,62.3425426 71.4145582,62.3425426 C70.7571472,62.3425426 70.211496,62.5509539 69.7776048,62.9677764 C69.4686216,63.2948218 69.31413,63.6763747 69.31413,64.1124352 C69.31413,64.8819537 69.9945504,65.4751242 71.3553912,65.8919468 L71.878033,66.0458505 C73.0022058,66.3985465 73.7976731,66.7480361 74.2644349,67.0943195 C74.9349942,67.5880938 75.2702738,68.2421846 75.2702738,69.0565917 C75.2702738,70.0313151 74.8922624,70.7687704 74.1362398,71.2689574 C73.551144,71.6601293 72.8312789,71.8557153 71.9766446,71.8557153 C71.2206219,71.8557153 70.4152935,71.6280661 69.5606591,71.1727676 C69.2648242,70.9996259 69.0413044,70.9130551 68.8900999,70.9130551 C68.6731543,70.9130551 68.5646815,71.1439107 68.5646815,71.6056218 L67.9828727,71.6056218 L67.9828727,67.9985037 L68.6041261,67.9985037 C68.6698672,68.9219259 68.9591281,69.6369369 69.4719087,70.1435366 C70.1293197,70.7976273 70.9510834,71.1246727 71.9371999,71.1246727 C73.3374854,71.1246727 74.0376281,70.5218832 74.0376281,69.3163042 C74.0376281,68.7776412 73.8305437,68.344787 73.4163747,68.0177417 C73.133688,67.7997114 72.479564,67.5175546 71.4540029,67.1712713 L70.8524718,66.9692727 C69.9255223,66.6678779 69.3042688,66.3921338 68.9887116,66.1420403 C68.3970417,65.6867418 68.1012067,65.090365 68.1012067,64.3529097 C68.1012067,63.6346925 68.3773193,63.0158713 68.9295446,62.4964463 C69.5343627,61.9449581 70.3232559,61.6692139 71.2962242,61.6692139 C72.1377103,61.6692139 72.8904459,61.8680062 73.554431,62.2655908 C73.7450802,62.3681932 73.9061459,62.4194945 74.0376281,62.4194945 C74.1888327,62.4194945 74.2841573,62.2303212 74.3236019,61.8519746 L74.8265213,61.8519746 L74.8265213,64.9204296 L74.2644349,64.9204296 Z" id="路径"></path>
                    </g>
                </g>
            </g>
        </g>
    </g>
</svg>